<svg xmlns="http://www.w3.org/2000/svg" viewBox="0 0 89.34 80"><title>Bank</title><g id="Capa_2" data-name="Capa 2"><g id="Capa_1-2" data-name="Capa 1"><path d="M72.84,47a16.5,16.5,0,1,0,16.5,16.5A16.52,16.52,0,0,0,72.84,47Zm0,30a13.5,13.5,0,1,1,13.5-13.5A13.57,13.57,0,0,1,72.84,77ZM71,24H8.64a1.7,1.7,0,0,1,0-3.4H71a1.75,1.75,0,0,1,1.7,1.7A1.63,1.63,0,0,1,71,24Zm4-4H4.64L39.84,3.3ZM42.94,56.9H53v.7H42.94Zm9.7-1v.6h-9.4v-.6Zm.8-29.2a2,2,0,0,1-2,2V51.9a1.51,1.51,0,0,1,1.3,1.5v2h-9.4v-2a1.43,1.43,0,0,1,1.3-1.5V28.8a2,2,0,0,1,0-4h6.9A1.84,1.84,0,0,1,53.44,26.7ZM26.74,56.9h10.1v.7H26.74Zm9.8-1v.6h-9.4v-.6Zm.7-29.2a2,2,0,0,1-2,2V51.9a1.51,1.51,0,0,1,1.3,1.5v2h-9.4v-2a1.43,1.43,0,0,1,1.3-1.5V28.8a2,2,0,0,1,0-4h6.9A1.84,1.84,0,0,1,37.24,26.7ZM10.54,56.9h10.1v.7H10.54Zm9.8-1v.6h-9.4v-.6ZM21,26.7a2,2,0,0,1-2,2V51.9a1.51,1.51,0,0,1,1.3,1.5v2h-9.4v-2a1.43,1.43,0,0,1,1.3-1.5V28.8a2,2,0,0,1,0-4h6.9A1.84,1.84,0,0,1,21,26.7ZM39.84,1.6,1,20.7a.7.7,0,0,1-1-.4c-.1-.4,0-.9.4-1L39.64,0h.1a.75.75,0,0,1,.5.1h0l39.2,19.3a.67.67,0,0,1,.4.7.37.37,0,0,1-.1.3.67.67,0,0,1-.7.4.37.37,0,0,1-.3-.1Zm14.1,64.3a15.54,15.54,0,0,0,.7,3.1h-50a1.6,1.6,0,1,1,0-3.2h49.3Zm-.1-3.9c0,.5-.1,1-.1,1.5a8.08,8.08,0,0,0,.1,1.6H6.54a1.6,1.6,0,1,1,0-3.2h47.3Zm.1-.8H8.54a1.6,1.6,0,1,1,0-3.2h46C54.34,59.1,54,60.1,53.94,61.2Zm6.7-12.3V28.8a2,2,0,0,1,0-4h6.9a2,2,0,0,1,0,4V45.2A18.49,18.49,0,0,0,60.64,48.9Zm10,11.9c0,.6.9,1.3,2.1,1.3,2.7,0,5,1.9,5,4.1a4.33,4.33,0,0,1-3.5,4v.4a1.4,1.4,0,1,1-2.8,0v-.4a4.33,4.33,0,0,1-3.5-4,1.4,1.4,0,1,1,2.8,0c0,.6.9,1.3,2.1,1.3s2.1-.7,2.1-1.3-.9-1.3-2.1-1.3c-2.7,0-5-1.9-5-4.1a4.33,4.33,0,0,1,3.5-4v-.4a1.4,1.4,0,0,1,2.8,0v.4a4.33,4.33,0,0,1,3.5,4,1.4,1.4,0,1,1-2.8,0c0-.6-.9-1.3-2.1-1.3S70.64,60.2,70.64,60.8Z"/></g></g></svg>