<svg xmlns="http://www.w3.org/2000/svg" viewBox="0 0 74.18 99.77"><title>companion</title><g id="Capa_2" data-name="Capa 2"><g id="Capa_1-2" data-name="Capa 1"><circle cx="55.62" cy="8.14" r="8.14"/><path d="M64.68,18H46.43a9,9,0,0,0-4.58,1.19,13.46,13.46,0,0,1,3.7,9.52V53.53c0,.14,0,.25,0,.38v41.3a4.56,4.56,0,0,0,9.13,0V56.92h2V95.21a4.56,4.56,0,0,0,9.13,0l0-66h2V53.53c0,4.89,6.38,4.89,6.37,0V28.68C74.18,23.27,71,18,64.68,18Z"/><path d="M4.72,28.54A14.17,14.17,0,0,1,6,22.59H4.56a4.56,4.56,0,0,0,0,9.13h.16Z"/><circle cx="25.14" cy="8.14" r="8.14"/><path d="M15,95.21a4.56,4.56,0,0,0,9.13,0V56.92h2V95.21a4.56,4.56,0,0,0,9.13,0l0-66h2V53.53c0,4.89,6.38,4.89,6.37,0V28.68c0-5.41-3.18-10.7-9.5-10.7H15.95c-5.76,0-9.37,4.7-9.37,10.56v25c0,4.86,6.42,4.86,6.42,0V29.2h2Z"/></g></g></svg>