<svg xmlns="http://www.w3.org/2000/svg" viewBox="0 0 81.53 82.11"><title>contract</title><g id="Capa_2" data-name="Capa 2"><g id="Capa_1-2" data-name="Capa 1"><path d="M67.56,0h8.72V5.72h-1l-6.72,0h-1V0Z"/><path d="M78.28,3.41h3.25V15.75H78.28v-1A2.91,2.91,0,0,0,78,13.22c-.16-.23-.31-.37-1-.37H76V7.59l1.13.13a1.09,1.09,0,0,0,.72-.16v0A1,1,0,0,0,78.25,7a1.07,1.07,0,0,0,0-.19v0a1.14,1.14,0,0,0,0-.22V3.41Z"/><path d="M69.84,7.72H74v5.16H69.84V7.72Z"/><path d="M67.56,14.88h8.72v1c0,15.88,0,32,0,47.91v1H67.56V14.88Z"/><path d="M67.94,66.78h8l-.41,1.31-2.66,8.5-1,3.06-1-3.09-2.62-8.5Z"/><path d="M0,.11v82H58V13.93H45.31a1.19,1.19,0,0,1-1-1V.11H0ZM9,14.27H37.06a1.54,1.54,0,0,1,.72.28,1.08,1.08,0,0,1,.22.34,1,1,0,0,1,.06.38,1.11,1.11,0,0,1-.06.41,1,1,0,0,1-.22.31,1.1,1.1,0,0,1-.34.22.94.94,0,0,1-.37.06H9a1,1,0,0,1-.37-.06A1.09,1.09,0,0,1,8.25,16,1,1,0,0,1,8,15.68,1.11,1.11,0,0,1,8,15.27,1,1,0,0,1,8,14.9a1.09,1.09,0,0,1,.22-.34,1,1,0,0,1,.34-.19A1,1,0,0,1,9,14.27Zm0,9H48.22a1,1,0,0,1,.38.06,1.09,1.09,0,0,1,.34.22,1.08,1.08,0,0,1,.22.34.79.79,0,0,1,0,.75.94.94,0,0,1-.56.56.94.94,0,0,1-.37.06H9a1,1,0,0,1-.37-.06A.94.94,0,0,1,8,24.61a1.17,1.17,0,0,1,0-.75.94.94,0,0,1,.56-.56A.94.94,0,0,1,9,23.24ZM9,32.8H48.91a1,1,0,0,1,.38.06,1.1,1.1,0,0,1,.34.22,1,1,0,0,1,.22.31,1.11,1.11,0,0,1,.06.41.86.86,0,0,1-.28.69,1.1,1.1,0,0,1-.34.22.94.94,0,0,1-.37.06H9a1,1,0,0,1-.37-.06,1.09,1.09,0,0,1-.34-.22A.86.86,0,0,1,8,33.8a1.11,1.11,0,0,1,.06-.41,1,1,0,0,1,.22-.31,1.1,1.1,0,0,1,.34-.22A.94.94,0,0,1,9,32.8Zm0,10H49a1,1,0,0,1,.38.09,1.1,1.1,0,0,1,.34.22.86.86,0,0,1,.28.69,1.11,1.11,0,0,1-.06.41,1,1,0,0,1-.22.31,1.1,1.1,0,0,1-.34.22.94.94,0,0,1-.37.06H9a1,1,0,0,1-.37-.06,1.09,1.09,0,0,1-.34-.22,1,1,0,0,1-.22-.31A1.11,1.11,0,0,1,8,43.83a.86.86,0,0,1,.28-.69,1.1,1.1,0,0,1,.34-.22A1,1,0,0,1,9,42.83Z"/><path d="M46.31,1.19,48,3l6.87,7.25,1.59,1.69H46.31V1.19Z"/></g></g></svg>