<svg xmlns="http://www.w3.org/2000/svg" viewBox="0 0 89.13 74.54"><defs><style>.cls-1{fill:#fff;}</style></defs><title>hands</title><g id="Capa_2" data-name="Capa 2"><g id="Capa_1-2" data-name="Capa 1"><path class="cls-1" d="M25.22,58.38,23.39,57a5,5,0,0,1-.61,2,4.21,4.21,0,0,1-.24.36l1.64,1.22.3.22c.12-.17.23-.34.34-.51a6.23,6.23,0,0,0,.72-1.71Zm12.24,9.09L36,66.37A8.24,8.24,0,0,1,34.23,68l1.94,1.44.07.06a11.35,11.35,0,0,0,1.68-1.76Zm34.69-7.8v-1a4.89,4.89,0,0,0-.24-1.74l-.33-.68h0a15,15,0,0,0-4.06-4.6l-1.24-.92,3.42,7.11h0c0,.36.08,1.28.09,1.6s0,.33,0,.44a2.14,2.14,0,0,1-.5,1.61,5.36,5.36,0,0,1-.58.6l-.12.08a2.3,2.3,0,0,1-2.64,0L50,49.45a1.21,1.21,0,0,0-1.52,1.88l11.92,9.6A8.19,8.19,0,0,1,63,64.6l.14.4a1,1,0,0,1-.21,1l-.09.09a3,3,0,0,1-2.28.78,4,4,0,0,1-1.9-.84L45,53.82a1.21,1.21,0,1,0-1.62,1.8h0L54.67,65.84a1,1,0,0,1,.31.51v.12l.58,1.65a4.85,4.85,0,0,1-.08,1.44l-.17.36a1,1,0,0,1-.64.54,3.71,3.71,0,0,1-3.65-1l-7.94-8a1.22,1.22,0,0,0-1.69,0,1.2,1.2,0,0,0-.07,1.68l6.55,7.36a1,1,0,0,1,0,1.41l-.14.12-.13.09a12.52,12.52,0,0,1-4.56-1A12.07,12.07,0,0,1,40.87,70a1.82,1.82,0,0,1-.18.39,3.89,3.89,0,0,1-1.49,1.4,15.22,15.22,0,0,0,8.74,2.79,1.27,1.27,0,0,0,.68-.21L49,74a3.53,3.53,0,0,0,1.39-1.94,6.12,6.12,0,0,0,4.91.68A3.46,3.46,0,0,0,57.47,71l.17-.36A5.52,5.52,0,0,0,58,68.52a6.56,6.56,0,0,0,2.12.76,5.4,5.4,0,0,0,4.45-1.52l.09-.1a3.38,3.38,0,0,0,.86-2.92,4.76,4.76,0,0,0,4.39-.59L70,64a6,6,0,0,0,1-1A4.53,4.53,0,0,0,72.15,59.67ZM46.53,29.51v.06h2.53a1.55,1.55,0,0,1,.42,0l-1.32-1.94a1.23,1.23,0,0,0-.89-.53l-8-.71a5.82,5.82,0,0,0-1.56,0L22.28,28.62l-1,.14-3.58.13L20,30.13c-.06.37-.13.73-.2,1.1h1.71l.78-.11L38,28.84a3,3,0,0,1,.94,0l2,.17ZM18.31,55l-2-.67a10.38,10.38,0,0,0-2.66-.53,4.63,4.63,0,0,0-.65,0H11.35l.52-1.67q-.69,1.15-1.44,2.28l-1.66-.51-.21.66a1.23,1.23,0,0,0,.17,1.07,1.18,1.18,0,0,0,1,.5H13a8.48,8.48,0,0,1,2.59.44l1.4.47,2.31.77c.13-.25.28-.52.46-.8A4.53,4.53,0,0,1,21,56Zm12.53,7.51-1.06-.79a9.77,9.77,0,0,1-1.62,1.8l2,1.45h0a13.9,13.9,0,0,0,1.58-1.83Z"/><path class="cls-1" d="M78.74,54.39c-.3-.45-.6-.91-.88-1.37l-1.23.5a1.24,1.24,0,0,0-.74.93v.19a1.59,1.59,0,0,1-1.58,1.59h-2.8a15,15,0,0,0-4.06-4.6l-1.24-.92L51.27,39.6a11.09,11.09,0,0,0-5.88-2.17l-2.83-.2a1.17,1.17,0,0,0-.91.32,1.2,1.2,0,0,0-.39.88,7,7,0,0,1-6.83,7H34c-1.29-.71-1.41-1.2-1.42-1.26a.26.26,0,0,1,0-.15,1,1,0,0,0,.21-.25l1-1.52a16.6,16.6,0,0,0,1.5-5.07A5,5,0,0,1,37.52,34l6.62-4.21a1.81,1.81,0,0,1,1-.27h4a1.55,1.55,0,0,1,.42,0,1.68,1.68,0,0,1,.34.11L56.52,32a18.63,18.63,0,0,0,5.89,1,21.59,21.59,0,0,0,4.68-.45A21.35,21.35,0,0,0,69.44,32c-.13-.62-.24-1.25-.35-1.87l2.83-1.49a1.07,1.07,0,0,0-.53.07l-1.48.57a19.78,19.78,0,0,1-3.25,1,19.33,19.33,0,0,1-4.23.41,16.47,16.47,0,0,1-5.13-.91l-6.59-2.26a4.2,4.2,0,0,0-1.61-.32h-4a4.2,4.2,0,0,0-2.25.65L40.94,29l-4.71,3a7.44,7.44,0,0,0-3.3,4.68.29.29,0,0,0,0,.09A14.73,14.73,0,0,1,31.77,41l-.89,1.42a2.67,2.67,0,0,0-.64,2.09c.16,1.21,1.15,2.3,2.93,3.22a1.17,1.17,0,0,0,.44.13h.87a9.42,9.42,0,0,0,9.13-8.13l1.63.12a8.69,8.69,0,0,1,4.61,1.7L66,53.57a12.46,12.46,0,0,1,3.62,4.28l.07.13a1.2,1.2,0,0,0,1.08.67h3.53a4,4,0,0,0,3.34-1.81,3.77,3.77,0,0,0,.57-1.35L81,54.33a1.2,1.2,0,0,0,.71-.78Z"/><path class="cls-1" d="M22.28,28.62a1.29,1.29,0,0,0-.3-.22l-9-4.7a1.19,1.19,0,0,0-1.61.48l-.07.14L.11,52.64a1.2,1.2,0,0,0,0,1,1.23,1.23,0,0,0,.76.63L10.58,57a1.24,1.24,0,0,0,1.32-.48l.18-.27c.53-.77,1-1.56,1.53-2.36A65.23,65.23,0,0,0,22.37,31c.09-.47.17-.93.24-1.4A1.24,1.24,0,0,0,22.28,28.62ZM11.87,52.11q-.69,1.15-1.44,2.28l-1.66-.46L2.85,52.28,13.13,26.46l4.6,2.43,2.35,1.24c-.06.37-.13.73-.2,1.1A62.84,62.84,0,0,1,11.87,52.11Z"/><path class="cls-1" d="M89,52.64,77.79,24.32a1.19,1.19,0,0,0-1.54-.69l-.14.07-8.92,4.7a1.21,1.21,0,0,0-.63,1.26,2.84,2.84,0,0,0,.1.57c.12.8.27,1.59.43,2.38a65.5,65.5,0,0,0,8.8,21.84c.43.69.88,1.36,1.34,2a1.08,1.08,0,0,0,.41.36,1.11,1.11,0,0,0,.59.16,1.22,1.22,0,0,0,.32,0l9.71-2.71a1.23,1.23,0,0,0,.76-.63A1.2,1.2,0,0,0,89,52.64Zm-7.31.91-3,.84c-.3-.45-.6-.91-.88-1.37a62.74,62.74,0,0,1-8.42-21c-.13-.62-.24-1.25-.35-1.87l2.83-1.49L76,26.46l10.3,25.82Z"/><path class="cls-1" d="M41.62,64.75a3.51,3.51,0,0,0-1.67-.54,5.14,5.14,0,0,0-2.52.5l-.48.24c-.06.11-.11.21-.17.3a12.35,12.35,0,0,1-.8,1.12A8.24,8.24,0,0,1,34.23,68l-.1.07A5.76,5.76,0,0,0,33.54,71a3.66,3.66,0,0,0,1.75,2.77,4.67,4.67,0,0,0,2.5.71,5.53,5.53,0,0,0,2.73-.75,5.81,5.81,0,0,0,1-.69,6.2,6.2,0,0,0,1.24-1.44,4.44,4.44,0,0,0,.26-.5,6.23,6.23,0,0,0,.44-2.61A4.33,4.33,0,0,0,41.62,64.75Zm-.93,5.61a3.89,3.89,0,0,1-1.49,1.4,2.56,2.56,0,0,1-2.62,0c-.64-.41-.8-1.11-.47-2.1l.06-.17A8.82,8.82,0,0,1,36.95,68a2.17,2.17,0,0,1,.51-.53,5.73,5.73,0,0,1,1-.56l.2-.08a2.58,2.58,0,0,1,1-.22,1.22,1.22,0,0,1,.7.19A2,2,0,0,1,41,68.56v.14A4,4,0,0,1,40.85,70,1.82,1.82,0,0,1,40.69,70.36Z"/><path class="cls-1" d="M38,57.17a5.34,5.34,0,0,0-4.81-.35,6.56,6.56,0,0,0-1.23.64,5.92,5.92,0,0,0-.83.69,3.12,3.12,0,0,1,.19.68c.08.46-.19.89-.72,1.67l-.4.61a7.67,7.67,0,0,1-.45.66,9.77,9.77,0,0,1-1.62,1.8,3.15,3.15,0,0,1-.3.24A8.08,8.08,0,0,0,27.67,66a4.49,4.49,0,0,0,.07.63A5.24,5.24,0,0,0,30,70.53a4.29,4.29,0,0,0,2.31.68A4.67,4.67,0,0,0,33.54,71a6.07,6.07,0,0,0,1.4-.57,7.84,7.84,0,0,0,1.17-.8l.13-.11a11.35,11.35,0,0,0,1.68-1.76,9.59,9.59,0,0,0,.72-1l.19-.29a15.59,15.59,0,0,0,1.12-2.33,7.3,7.3,0,0,0,.42-1.45A5.54,5.54,0,0,0,38,57.17Zm-3.9,11a3.61,3.61,0,0,1-.36.23,2.15,2.15,0,0,1-2.41.11,3.13,3.13,0,0,1-1.28-2.58,5.54,5.54,0,0,1,0-.81.25.25,0,0,1,0-.08,7.21,7.21,0,0,1,.73-2.46,8.79,8.79,0,0,1,.44-.79,10.53,10.53,0,0,1,2-2.29l.44-.26a3.45,3.45,0,0,1,1.57-.4,2.57,2.57,0,0,1,1.41.4A3.12,3.12,0,0,1,38,62.42a6.59,6.59,0,0,1-.47,1.38A9.5,9.5,0,0,1,37,65c-.06.11-.11.21-.17.3a12.35,12.35,0,0,1-.8,1.12A8.24,8.24,0,0,1,34.23,68Z"/><path class="cls-1" d="M25.59,55.28a3.13,3.13,0,0,0-.5-.87,3.51,3.51,0,0,0-3.47-1.32,7.61,7.61,0,0,0-3.31,2,4.31,4.31,0,0,0-.64.76,10.35,10.35,0,0,0-.72,1.33,6.51,6.51,0,0,0-.66,2.34A3.65,3.65,0,0,0,18,62.93a3.86,3.86,0,0,0,3.48.38l.43-.19a6.44,6.44,0,0,0,2-1.64,8,8,0,0,0,.51-.64c.12-.17.23-.34.34-.51a7.83,7.83,0,0,0,1-2.87A4.64,4.64,0,0,0,25.59,55.28Zm-2.18,1.43V57a5,5,0,0,1-.61,2,4.22,4.22,0,0,1-.24.36,6.19,6.19,0,0,1-.79.92,3.61,3.61,0,0,1-.86.64,1.47,1.47,0,0,1-1.55-.07,1.24,1.24,0,0,1-.63-1.26,4.7,4.7,0,0,1,.55-1.72c.13-.25.28-.52.46-.8A4.53,4.53,0,0,1,21,56a3.81,3.81,0,0,1,1-.49h.22a1.1,1.1,0,0,1,1,.7,1.64,1.64,0,0,1,.08.55Z"/><path class="cls-1" d="M33.74,58.45a5.45,5.45,0,0,0-.52-1.63,5.8,5.8,0,0,0-2.14-2.39,5.87,5.87,0,0,0-4.77-.68,3.4,3.4,0,0,0-1.22.66,6.71,6.71,0,0,0-1.38,1.8l-.3.49h0V57a5,5,0,0,1-.61,2,4.21,4.21,0,0,1-.24.36,6.19,6.19,0,0,1-.79.92A7.83,7.83,0,0,0,21.48,62a5.28,5.28,0,0,0,.07,1.33A4.38,4.38,0,0,0,25.83,67a5.07,5.07,0,0,0,1.91-.4,7,7,0,0,0,1.42-.8,10.94,10.94,0,0,0,.94-.77h0a13.9,13.9,0,0,0,1.58-1.83c.18-.26.37-.53.55-.82l.36-.55a5.35,5.35,0,0,0,1.12-2.63A2.87,2.87,0,0,0,33.74,58.45Zm-5.88,5.36a2.64,2.64,0,0,1-3,.54,2.16,2.16,0,0,1-.93-2.22,3.9,3.9,0,0,1,.09-.65,6.3,6.3,0,0,1,.21-.86,11.1,11.1,0,0,1,1-2.24l.19-.32c.14-.2.25-.41.37-.6h0c.48-.81.75-1.24,1.2-1.37a3.41,3.41,0,0,1,1-.14,3.55,3.55,0,0,1,1.85.54,3.4,3.4,0,0,1,1.37,1.68,3.12,3.12,0,0,1,.19.68c.08.46-.19.89-.72,1.67l-.4.61a7.67,7.67,0,0,1-.45.66,9.77,9.77,0,0,1-1.62,1.8Z"/><path class="cls-1" d="M28.11,21.84a1.21,1.21,0,0,1-1-.53l-6.2-9.06a1.21,1.21,0,0,1,2-1.36L29.11,20a1.21,1.21,0,0,1-1,1.89Z"/><path class="cls-1" d="M38.56,19.82a1.21,1.21,0,0,1-1.19-1L34.59,1.43A1.23,1.23,0,1,1,37,1L39.8,18.41a1.21,1.21,0,0,1-1,1.39h0Z"/><path class="cls-1" d="M59.85,21.84a1.21,1.21,0,0,1-1-1.89L65,10.88a1.21,1.21,0,1,1,2,1.29l0,.07-6.2,9.06A1.21,1.21,0,0,1,59.85,21.84Z"/><path class="cls-1" d="M49.39,19.82H49.2a1.21,1.21,0,0,1-1-1.39h0L51,1a1.21,1.21,0,0,1,2.39.38l-2.82,17.4A1.21,1.21,0,0,1,49.39,19.82Z"/></g></g></svg>