<svg xmlns="http://www.w3.org/2000/svg" viewBox="0 0 63.61 60"><title>marketing</title><g id="Capa_2" data-name="Capa 2"><g id="Capa_1-2" data-name="Capa 1"><path d="M63.61,60h-52l2.28-16a8,8,0,0,1,5.57-6.52L27.61,35l2-2v1l-1,2a40,40,0,0,0,3.08,15.39L33.61,56l1-5,2-5-2-4,3-2,3,2-2,4,2,5,1,5,1.92-4.61A40,40,0,0,0,46.61,36l-1-2V33l2,2,8.15,2.51A8,8,0,0,1,61.32,44Zm-19-26.92V27.3a11.35,11.35,0,0,0,2-5.3s1.05-.58,1.72-2.85c.57-2,.35-3.69-.39-4.06,0,0,.68-5.36.68-6.08,0-5.67-6-9-11-9-8,0-9,5-9,5s-2,2-2,4c0,.72.68,6.08.68,6.08-.75.38-1,2.1-.39,4.06.66,2.28,1.72,2.85,1.72,2.85a11.36,11.36,0,0,0,2,5.3v5.78a2,2,0,0,0,.7,1.52l6.3,5.4,6.3-5.4A2,2,0,0,0,44.61,33.08ZM19.61,8a1.41,1.41,0,0,0-2,0l-12,12a1.41,1.41,0,0,0,2,2l12-12A1.41,1.41,0,0,0,19.61,8ZM7.31,8.29l-3.5-3.5L2.4,6.21l3.5,3.5ZM0,14H5V12H0ZM11.61,2.39h-2V7.34h2ZM12,11.59a2,2,0,1,0-2.83,2.83Zm9.17,18a2,2,0,0,0,2.83,0l3.17-3.17a2,2,0,0,0,0-2.83l-4.76-4.76A9.66,9.66,0,0,1,19.61,12l-10,10a9.66,9.66,0,0,1,6.83,2.83Zm5.41.41,1-1a1.41,1.41,0,0,0,0-2l-3,3A1.41,1.41,0,0,0,26.61,30ZM14.51,31.91l.54.54a1,1,0,0,0,1.22.15L20.61,30l-2-2-3.9,2.34A1,1,0,0,0,14.51,31.91Z"/></g></g></svg>