<svg xmlns="http://www.w3.org/2000/svg" viewBox="0 0 69.94 75.07"><defs><style>.cls-1{fill:#fff;}</style></defs><title>prize</title><g id="Capa_2" data-name="Capa 2"><g id="Capa_1-2" data-name="Capa 1"><path class="cls-1" d="M29.24,49.42l.68,3.12,3.4-1.62h.05V65h4V47.23H33.95Zm40.58-31L60.6.55a1,1,0,0,0-.9-.55H10.25a1,1,0,0,0-.9.55L.11,18.43a1,1,0,0,0,0,1l16.74,29a19.47,19.47,0,1,0,36.19,0l16.74-29A1,1,0,0,0,69.82,18.43ZM57.93,2,49.35,16.92H20.59L12,2ZM48.18,19,38.13,36.4a17.94,17.94,0,0,0-6.31,0L21.76,19Zm-46-.09L10.3,3.14,29.72,36.86a19.54,19.54,0,0,0-11.8,9.34ZM35,73A17.44,17.44,0,1,1,52.41,55.59,17.46,17.46,0,0,1,35,73ZM52,46.2a19.54,19.54,0,0,0-11.8-9.34L59.64,3.14l8.12,15.73Z"/></g></g></svg>