<svg xmlns="http://www.w3.org/2000/svg" viewBox="0 0 99.11 88.58"><title>upstats</title><g id="Capa_2" data-name="Capa 2"><g id="Capa_1-2" data-name="Capa 1"><path d="M9.3,51.67a2.31,2.31,0,0,0,.86-3.15l-.58-1,7.8-1.44,1.54,2.69a9.71,9.71,0,0,0,18-6.29l16.9-3.11L55,41.43a2.31,2.31,0,1,0,4-2.29L37.25,1a2.31,2.31,0,0,0-4,2.29l1,1.71L4.77,39l-.38-.66a2.31,2.31,0,1,0-4,2.29L6.15,50.81A2.31,2.31,0,0,0,9.3,51.67ZM32.41,43.3a5.1,5.1,0,0,1-9.48,3.16l-.74-1.24ZM53.19,17.22a2.55,2.55,0,0,1,.95-3.48h0l7.58-4.33a2.55,2.55,0,1,1,2.76,4.29l-.23.13-7.59,4.39a2.55,2.55,0,0,1-3.47-1ZM49,12a2.52,2.52,0,0,1-.27-3.43l5.58-7a2.52,2.52,0,1,1,4,3l-.08.11-5.58,7a2.53,2.53,0,0,1-1.77.94h-.19A2.53,2.53,0,0,1,49,12Zm6.58,11.48a2.52,2.52,0,0,1,2-3l.15,0,8.83-1.27a2.53,2.53,0,0,1,.71,5l-8.86,1.26H58A2.53,2.53,0,0,1,55.58,23.49Zm-30,65.09a2.93,2.93,0,0,1-3-2.86s0-.05,0-.08V75.41a2.93,2.93,0,0,1,2.93-2.93h7.94a2.93,2.93,0,0,1,2.93,2.93h0V85.64a2.93,2.93,0,0,1-2.93,2.93H25.58Zm19.67,0a2.93,2.93,0,0,1-2.93-2.93h0V72A2.93,2.93,0,0,1,45.25,69h7.94A2.93,2.93,0,0,1,56.12,72h0V85.64a2.93,2.93,0,0,1-2.93,2.93H45.25Zm30.5-24.36V85.64a2.93,2.93,0,0,1-2.93,2.93H64.87a2.93,2.93,0,0,1-2.93-2.93h0V64.22a2.93,2.93,0,0,1,2.93-2.93h7.94a2.93,2.93,0,0,1,2.94,2.92ZM95.42,49.68v35.9a3,3,0,0,1-2.93,3H84.58a3,3,0,0,1-2.93-3V49.68a3,3,0,0,1,2.93-3h7.9A3,3,0,0,1,95.42,49.68Zm3.63-19a3,3,0,0,1-5.87,1.24L92,26.22A84.28,84.28,0,0,1,71.3,49.07,79.16,79.16,0,0,1,48.19,61.13a77.28,77.28,0,0,1-23.61,4c-1.35,0-2.15-.05-2.23-.06a3,3,0,0,1,.43-6h1.67a72.67,72.67,0,0,0,22-3.74C63.37,49.72,76.95,38.84,86.83,23l-5.54,1.26A3,3,0,0,1,80,18.36l12.73-2.72a3,3,0,0,1,3.56,2.3Z"/></g></g></svg>